<svg class="w-full h-auto fill-current" viewBox="0 0 764.776 200"><path d="m49.625 38.799-2.87.213q-3.4.318-2.762 24.228L7.863 85.449q-1.168-33.155-4.038-71.09-.85-10.52 10.202-11.37 50.687-9.14 69.602 9.67 8.289 7.756 14.558 17.426L60.995 52.932q-6.907-14.452-11.37-14.133m8.395 32.942q-2.55-6.482-4.888-11.264L90.324 37.63q1.381 2.125 2.656 4.357zm39.53-29.435q12.326 21.465 15.62 51.856l.213 2.125q1.275 17.109-3.4 36.13-3.189 11.901-9.777 26.46-17.32 30.072-77.253 33.791-11.795-.425-14.452-14.983-.85-10.945-3.188-51.963v-4.675l36.236-31.03q.425 6.908 1.063 14.984 2.337 30.498 2.975 37.83 2.125 11.901 5.313 11.689l2.232-.213q4.463-.319 10.2-9.351 8.29-23.272 6.695-43.993-.53-7.438-2.55-15.833-2.55-7.226-4.888-13.07ZM.744 120.728Q.53 107.232 0 92.993l36.13-22.209q.212 8.076.85 18.915zm182.454-78.104q-1.913-3.081-7.651-2.444-10.308-.425-12.752 16.365l-33.791-8.714q.743-5.42 1.593-8.926 5.739-19.658 16.471-25.715 12.22-7.651 34.96-6.801 25.398.956 31.455 16.47 5.632 8.714 6.163 48.244l-30.923-7.97q-.637-13.389-5.525-20.509m-61.314 15.302q.425-4.463.85-8.076l33.792 8.714-.213 1.7zm38.892 2.02q-.425 3.931-.531 8.607v1.275q-.106 3.72.744 31.56-.425 2.975-.532 8.501-.106 8.926 8.395 9.245h.85q16.577.638 16.684-7.013v-1.276q.106-9.67-.107-19.977.532-7.97.744-21.678 0-2.231-.106-4.357l30.923 7.97q.212 9.883 0 21.784-.107 6.695.318 36.555-.531 40.911-.637 47.18-.213 12.327-12.114 11.902l-2.55-.106q-14.24-.532-16.684-6.589-1.169 0-1.913-16.258.638-12.114.638-15.62.106-5.207-8.395-6.27l-.425-.106q-13.283-.425-15.302 3.294-1.275 2.019-1.381 5.526l-.319 23.803q-.213 12.751-13.814 12.22-4.676-.213-8.501.106-9.351-.425-9.139-11.476v-2.976q-1.594-39.21-1.7-85.967-.319 0-.638-15.302.425-9.563 1.063-16.895zm135.805 133.997q-2.126.425-8.927.425-6.694 0-11.689-.318l47.606-20.084q-.425 1.7-.743 3.188l-22.953 16.79zm23.803-10.732q-2.126 9.138-3.188 11.795-2.55 4.57-19.765 4.994zm-56.639 2.763q-3.506-3.188-13.495-58.233-2.976-17.533-7.014-61.845l-1.806-10.839 36.767-9.35q2.87 20.295 9.67 60.888 3.188 9.989 4.463 9.989h.425q2.232 0 7.013-27.416 1.807 0 5.951-50.475l41.868-10.627-1.488 8.289q-4.57 30.816-8.713 63.545-5.845 30.817-8.183 59.083-1.169 5.738-2.231 10.307l-47.606 20.084q-13.07-.744-15.62-3.4M239.305 17.97q-1.063-2.231-1.488-7.013.213-7.545 20.615-7.545h11.689q9.776 0 9.245 18.703-.106 3.931 2.019 18.915l-36.767 9.35zm70.346-.212q2.975-9.564 10.095-9.564 7.226 0 25.822-.956 6.8.956 6.694 6.694l-2.444 13.815-41.867 10.626q.85-9.457 1.7-20.615m81.079 134.104q15.302 1.913 15.302 15.302 0 16.683-17.853 22.103-2.975.425-5.1.425-11.264 0-16.152-12.752-.425-.956-.85-3.825 0-12.327 12.751-18.278 6.482-2.975 11.902-2.975m41.974-131.554q2.55-4.782 5.42-8.288l20.508 31.985q-2.87 1.806-4.888 6.27l-24.972-20.51q1.806-4.781 3.932-9.457m25.29 104.776q1.913 9.457 4.463 12.114 4.57 7.863 11.796 7.863 7.544 0 10.838-13.07l30.285 7.757q-5.632 19.021-16.895 35.173-12.858 14.77-26.566 14.77h-3.932q-14.24 0-28.266-13.92-14.877-18.808-14.877-59.188zm24.228 3.506q.957-4.25 1.594-9.776 1.488-16.152 1.488-22.528-1.381-36.235-4.357-40.698-4.994-11.052-11.37-11.052h-2.125q-2.338 0-4.25 1.275l-20.51-31.985q7.758-9.138 18.065-9.138 10.095-.85 12.645-.85h.426q26.672 0 35.704 26.565 5.738 8.182 8.714 62.695v1.7q0 22.316-5.739 41.55zm-60.25-28.903q0-37.617 11.37-68.115l24.971 20.509q-2.763 5.844-4.144 16.364L452.044 93.1v5.314q1.275 14.558 3.081 23.271l-33.154-8.5zm108.919 71.409q.531-13.496 4.463-18.171l32.623 5.525-.744 16.79-36.66 2.338zm45.374 14.664q-.425 11.476-12.751 10.945l-12.752-.531q-11.476-.532-10.945-13.283l.106-2.444 36.661-2.338zm28.798-128.26q.212-4.994-.213-33.154l.319-8.5q.425-10.202 14.027-9.67l8.926.424q1.487.107 3.825-.212 10.626.425 10.201 10.201-.743 7.545-.956 12.752v.425q.213 19.233-.212 31.879l-36.449 8.288zm37.617 55.682q-.107 11.795-.532 21.678-.425 10.839-1.912 35.598.106 6.376-.107 13.177-.318 6.8-11.05 7.65-11.796-.53-19.447-.956-6.907-.318-11.69-17.002-9.669-19.977-18.808-46.756-3.613-10.2-5.525-10.838h-.425q-2.444-.107-3.295 17.32l-.53 13.815-35.812-9.351q.425-5.632.85-9.14-.212-3.718-.212-4.675.956-12.858 1.275-20.721-.531-16.152-.425-19.552l.531-12.327q.32-6.695 1.063-13.602-.319-2.975-.638-15.302 2.55-34.323 5.739-34.216 2.231-1.594 4.675-1.488l25.503 1.063q8.289.425 10.733 7.757 8.501 38.892 14.346 62.695 4.888 16.79 7.757 18.171l.85.106q2.975.107 3.825-19.446v-1.169l35.811 2.126q-2.444 33.047-2.55 35.385m-15.62-46.33 26.459-3.507q-.32 3.4-.638 6.376-.638 3.719-1.063 6.907l-25.503-4.463Zm23.59-6.589q-3.507-7.757-1.382-15.09l41.124 14.984-2.657 3.507zm50.9 9.245q1.912 9.245 4.25 9.245 3.826 2.125 11.795 2.125h4.038l-4.888 30.179q-11.264 2.231-11.264 6.8-1.062 1.914-1.062 7.014v6.482q0 4.463-.425 7.014 0 17.64 5.313 18.808l-5.207 32.198q-16.896.319-22.847.319-19.127 0-19.127-9.564v-1.7q0-3.507.425-9.245-1.913-47.5-2.232-104.988zM661.17 45.6q-.532-8.075-.532-21.252v-1.806q0-10.945 7.12-13.07 4.675-.85 9.351-.85h28.054q11.05 0 28.16-.213l-5.101 31.347q-4.782.213-10.627.213h-5.1q-10.84 0-10.84 10.414.213 7.544-3.718 8.607L661.17 48.363Zm78.74 45.056q.957 2.657.957 9.99-.744 11.263-8.501 11.263-1.913.213-3.613.425l1.381-29.541q8.395.319 9.777 7.863m7.97 68.434q9.351 0 9.351 16.258v.532q0 14.345-12.114 14.345-2.125 0-14.026.425-4.57.106-8.714.213l1.382-30.71q8.5-.744 24.121-1.063m-38.68 35.598 4.464-27.84q.425.105.743.105 0 .425 4.57 1.063 1.169-.106 2.55-.212l-1.169 26.565q-6.057.213-11.157.32M752.98 3.732q11.796 2.338 11.796 16.152 0 15.196-13.602 15.196h-2.869q-5.632.637-12.22-1.7l2.657-29.435q6.694-.107 14.239-.213" aria-label="dav.one"/></svg>