<?xml version="1.0" encoding="UTF-8" standalone="no"?>
<svg
   class="w-full h-auto fill-current"
   viewBox="0 0 765.36328 166.858"
   version="1.1"
   id="svg1"
   sodipodi:docname="Logo_02.svg"
   inkscape:version="1.4.3 (0d15f75, 2025-12-25)"
   width="765.36328"
   height="166.858"
   xmlns:inkscape="http://www.inkscape.org/namespaces/inkscape"
   xmlns:sodipodi="http://sodipodi.sourceforge.net/DTD/sodipodi-0.dtd"
   xmlns="http://www.w3.org/2000/svg"
   xmlns:svg="http://www.w3.org/2000/svg">
  <defs
     id="defs1" />
  <sodipodi:namedview
     id="namedview1"
     pagecolor="#505050"
     bordercolor="#eeeeee"
     borderopacity="1"
     inkscape:showpageshadow="0"
     inkscape:pageopacity="0"
     inkscape:pagecheckerboard="0"
     inkscape:deskcolor="#505050"
     inkscape:zoom="1.1572016"
     inkscape:cx="398.80691"
     inkscape:cy="-31.541609"
     inkscape:window-width="1920"
     inkscape:window-height="1017"
     inkscape:window-x="-8"
     inkscape:window-y="-8"
     inkscape:window-maximized="1"
     inkscape:current-layer="svg1" />
  <path
     style="font-size:166.858px;font-family:'Fake Identity';-inkscape-font-specification:'Fake Identity';stroke-width:0;stroke-linecap:round;stroke-linejoin:round;stroke-miterlimit:4.7"
     d="M 41.7145,130.19487 78.214688,166.858 H 69.089641 L 41.7145,139.31991 v 8.47326 L 60.616383,166.858 H 51.980178 L 41.7145,156.59232 v 8.47326 l 1.79242,1.79242 H 0 V 0 h 83.429001 l 20.857249,20.85725 v 125.1435 L 93.531731,156.75527 62.082909,125.1435 h 0.488842 V 41.7145 H 41.7145 Z m 47.580602,30.79703 -4.399576,4.39958 -39.92208,-40.24798 h 8.799152 z m 94.020578,-59.80165 -5.21431,-23.301456 -5.54021,23.301456 z M 155.61464,166.858 h -9.12504 l -28.35283,-28.51577 1.79242,-7.33263 z m -34.70777,0 h -9.45094 l 1.79242,-7.65852 z M 124.81761,110.3153 150.88917,0 h 54.09849 l 39.43324,166.858 h -46.11407 l -5.37726,-23.95325 h -29.9823 l -0.97768,4.56253 z m 13.36168,56.5427 h -8.79916 l -14.5023,-14.50231 1.62947,-7.16967 z m -16.62063,-42.69218 1.62948,-7.00673 37.15197,37.31492 -1.62947,7.16968 z M 288.25371,88.969208 306.50381,0 h 41.55155 l -35.5225,166.858 H 263.81162 L 228.28912,0 h 41.55155 z M 352.78082,166.858 v -41.7145 h 41.7145 V 166.858 Z M 448.105,105.91572 v 8.9621 L 406.3905,72.837428 V 64.038276 Z M 406.3905,38.129661 v -8.799153 l 41.7145,41.877448 v 8.799152 z m 41.7145,85.058469 v 1.95537 h 20.85725 V 41.7145 H 448.105 V 62.734698 L 406.3905,20.85725 427.24775,0 h 62.57175 l 20.85725,20.85725 v 125.1435 L 489.8195,166.858 H 427.24775 L 406.3905,146.00075 V 81.310686 Z M 406.3905,55.565018 v -9.125047 l 41.7145,42.040395 v 9.125047 z M 522.5719,166.858 V 0 h 41.7145 l 41.7145,73.978059 V 0 h 41.7145 V 166.858 H 606.0009 L 564.2864,93.694679 V 166.858 Z M 738.80291,0 h 8.79915 l 17.76125,17.924199 v 8.799153 z m 17.10946,0 h 9.45094 v 9.4509415 z m 9.45094,35.033662 V 41.7145 H 762.9191 L 729.67786,8.3103106 V 16.783569 L 754.44584,41.7145 h -8.79915 L 729.67786,25.582721 v 8.473258 l 7.65852,7.658521 h -36.01134 v 20.857251 h 48.72123 v 41.714499 h -48.72123 v 20.85725 h 64.03827 V 166.858 H 659.61053 V 0 h 70.88207 z"
     id="text1"
     aria-label="DAV.ONE" />
</svg>
