<?xml version="1.0" encoding="UTF-8" standalone="no"?>
<svg
   class="w-full h-auto fill-current"
   viewBox="0 0 762.45203 148.36307"
   version="1.1"
   id="svg1"
   sodipodi:docname="Logo_03.svg"
   inkscape:version="1.4.3 (0d15f75, 2025-12-25)"
   width="762.45203"
   height="148.36307"
   xmlns:inkscape="http://www.inkscape.org/namespaces/inkscape"
   xmlns:sodipodi="http://sodipodi.sourceforge.net/DTD/sodipodi-0.dtd"
   xmlns="http://www.w3.org/2000/svg"
   xmlns:svg="http://www.w3.org/2000/svg">
  <defs
     id="defs1" />
  <sodipodi:namedview
     id="namedview1"
     pagecolor="#505050"
     bordercolor="#eeeeee"
     borderopacity="1"
     inkscape:showpageshadow="0"
     inkscape:pageopacity="0"
     inkscape:pagecheckerboard="0"
     inkscape:deskcolor="#505050"
     inkscape:zoom="1.1572016"
     inkscape:cx="397.94276"
     inkscape:cy="-25.492533"
     inkscape:window-width="1920"
     inkscape:window-height="1017"
     inkscape:window-x="-8"
     inkscape:window-y="-8"
     inkscape:window-maximized="1"
     inkscape:current-layer="svg1" />
  <path
     style="font-size:119.39px;font-family:'Cyborg Punk';-inkscape-font-specification:'Cyborg Punk';stroke-width:0;stroke-linecap:round;stroke-linejoin:round;stroke-miterlimit:4.7"
     d="M 0.99103025,0.46636416 H 73.686015 q 0.641255,0 18.829575,18.82957484 V 69.721891 H 55.381103 V 38.067218 H 37.600854 V 69.721891 H -1.4901161e-8 V 1.4573944 Q 0.17488768,0.46636416 0.99103025,0.46636416 Z M -1.4901161e-8,75.668073 H 37.600854 V 111.28687 H 55.381103 V 75.668073 H 92.51559 v 53.923707 q 0,0.64125 -18.829575,18.77128 H 0.99103025 Q -1.4901161e-8,148.36306 -1.4901161e-8,147.37203 Z M 7.9282421,120.20614 v 17.31388 h 6.4125489 v -17.31388 z m 12.8250979,0 v 17.31388 h 6.470844 V 120.20614 Z M 147.54691,0.46636416 h 19.76231 q 1.16592,0 7.46188,29.67261184 l 22.7354,94.031284 h 27.22418 q 5.42152,22.21074 5.42152,24.1928 h -41.04031 l -4.48878,-21.21971 h -26.17486 q -4.37219,21.21971 -5.47982,21.21971 h -20.28697 v -9.38564 h -6.41255 v 9.38564 h -13.34976 v -0.46637 q 0.99103,-5.88789 34.62776,-147.43032584 z m 27.22419,0 h 20.75334 L 223.21499,118.22408 H 201.47062 Q 199.02219,105.51557 173.78007,0.99102724 Z m -3.49775,70.77122084 -3.96413,18.771279 h 8.45291 q 0,-1.515694 -3.96412,-18.771279 z M 241.05355,0.46636416 H 255.919 q 1.34081,0 7.40358,29.20624484 l 17.78025,73.219651 h 43.54703 q -8.91927,42.14793 -9.9103,45.4708 h -42.49771 q -1.22421,0 -4.95515,-21.21971 L 240.06252,0.99102724 Z m 21.74437,0 h 14.34079 Q 291.01313,66.165841 292.99519,78.1165 h 0.52466 L 309.31804,0.46636416 h 36.14346 l 0.99103,0.52466308 Q 326.16556,94.789127 326.16556,96.946076 H 285.06695 L 262.79792,0.99102724 Z M 366.85608,110.7622 h 37.07619 v 37.13449 h -37.07619 z m 77.24208,37.13449 q -2.09866,0 -19.76231,-18.77128 V 110.8205 h 92.51559 v 17.78025 q -18.65469,19.29594 -19.29595,19.29594 z M 424.33585,18.829572 Q 442.46587,-3.0249357e-6 443.10713,-3.0249357e-6 h 54.91473 Q 516.85144,18.188317 516.85144,18.829572 V 104.87432 H 479.25058 V 37.134484 h -17.83854 v 67.739836 h -37.07619 z m 86.5694,36.609824 V 38.125514 h -6.41254 v 17.313882 z m -49.6681,68.614274 v 17.31388 h 6.41255 v -17.31388 z m 11.89236,0 v 17.31388 h 6.47085 V 124.05367 Z M 551.5375,37.076188 H 537.255 V 0.99102724 Q 537.42989,-3.0249357e-6 538.24604,-3.0249357e-6 H 551.5375 Z M 537.255,43.02237 h 44.53807 q 1.86547,1.399101 24.25109,43.022373 1.28251,1.282509 34.62777,61.851947 h -29.20625 q -2.39013,-2.39013 -36.60982,-63.834008 h -0.52466 v 63.834008 h -10.37667 q -0.58296,0 -26.69953,-26.69952 z M 558.7079,-3.0249357e-6 h 15.15693 Q 581.21011,11.251105 610.47465,64.76674 h 0.46637 V 0.99102724 Q 611.11591,-3.0249357e-6 611.93205,-3.0249357e-6 h 6.93721 Q 619.86029,0.11658877 619.86029,0.99102724 V 10.843034 h 6.47085 V 0.99102724 Q 626.44773,-3.0249357e-6 627.26387,-3.0249357e-6 h 4.48879 Q 632.74369,0.11658877 632.74369,0.99102724 V 10.843034 h 6.41254 V 0.99102724 Q 639.33112,-3.0249357e-6 640.14727,-3.0249357e-6 h 6.93721 Q 648.07551,0.11658877 648.07551,0.99102724 V 147.89669 h -0.99103 L 585.23253,37.076188 H 558.7079 Z M 669.4701,0.46636416 h 70.71292 Q 739.94984,3.6726386 734.7615,10.376667 H 668.47906 V 1.4573944 q 0.17489,-0.99103024 0.99104,-0.99103024 z m 91.99092,0 q 0.99103,0.17488769 0.99103,0.99103024 V 38.067218 h -56.37213 v 17.780249 h 43.02237 v 37.134488 h -43.02237 v 18.304915 h 56.37213 v 10.90133 q -0.17488,0.75785 -26.17486,26.17486 H 669.4701 q -0.99104,0 -0.99104,-0.99103 V 16.789216 q 0.17489,-0.991031 0.99104,-0.991031 h 68.78915 Q 745.66283,0.46636416 747.64489,0.46636416 Z M 674.89161,125.62766 v 17.31388 h 6.47085 v -17.31388 z m 12.8834,0 v 17.31388 h 6.41255 v -17.31388 z"
     id="text1"
     aria-label="DAV.ONE" />
</svg>
