<?xml version="1.0" encoding="UTF-8" standalone="no"?>
<svg
   version="1.1"
   viewBox="0 0 764.77612 200.00024"
   class="w-full h-auto fill-current">
  <defs
     id="defs1" />
  <path
     d="m 49.624907,38.798999 -2.869106,0.212526 q -3.400422,0.318789 -2.762843,24.228006 L 7.8634756,85.448536 Q 6.6945806,52.294423 3.8254746,14.358466 2.9753692,3.8384113 14.02674,2.9883059 64.714279,-6.1503279 83.629125,12.658256 91.917653,20.415468 98.187181,30.085418 L 60.995067,52.932002 Q 54.08796,38.480209 49.624907,38.798999 Z m 8.394791,32.941586 Q 55.469382,65.258531 53.131592,60.476688 L 90.323706,37.630104 q 1.381421,2.125263 2.656579,4.35679 z M 97.549602,42.305684 q 12.326528,21.465163 15.620688,51.856433 l 0.21253,2.125264 q 1.27515,17.108369 -3.40043,36.129479 -3.18789,11.90148 -9.77621,26.45954 Q 82.885283,188.94888 22.952848,192.66809 11.157634,192.24303 8.5010547,177.68498 7.6509492,166.73987 5.3131592,125.72228 V 121.0467 L 41.548905,90.017853 q 0.425052,6.907107 1.062631,14.983107 2.33779,30.49754 2.97537,37.82969 2.125263,11.90148 5.313159,11.68895 l 2.231527,-0.21252 q 4.463053,-0.31879 10.201265,-9.35116 8.288528,-23.27164 6.694581,-43.99296 Q 69.496122,93.524538 67.477121,85.129746 64.926805,77.90385 62.589015,72.059375 Z M 0.74384232,120.72791 Q 0.53131595,107.23249 3.7252903e-8,92.993222 L 36.129482,70.784217 q 0.212527,8.076002 0.850106,18.914846 z M 183.19772,42.624473 q -1.91273,-3.081632 -7.65094,-2.444053 -10.30753,-0.425053 -12.75159,16.36453 L 129.0035,47.831369 q 0.74384,-5.419422 1.59395,-8.926107 5.73821,-19.658689 16.47079,-25.715691 12.22027,-7.6509487 34.96059,-6.8008433 25.3969,0.9563687 31.4539,16.4707933 5.63195,8.713581 6.16327,48.243485 l -30.92259,-7.969739 q -0.63758,-13.389161 -5.52569,-20.508794 z m -61.31385,15.301899 q 0.42505,-4.463054 0.8501,-8.076002 l 33.7917,8.713581 q -0.10627,0.850105 -0.21253,1.700211 z m 38.89232,2.019 q -0.42505,3.931738 -0.53131,8.607318 v 1.275158 q -0.10627,3.719211 0.74384,31.560162 -0.42505,2.97537 -0.53132,8.50106 -0.10626,8.92611 8.3948,9.24489 h 0.8501 q 16.57706,0.63758 16.68332,-7.01337 v -1.27515 q 0.10626,-9.66995 -0.10626,-19.977482 0.53131,-7.969738 0.74384,-21.677689 0,-2.231527 -0.10626,-4.356791 l 30.92258,7.969739 q 0.21253,9.882476 0,21.783953 -0.10626,6.69458 0.31879,36.55453 -0.53131,40.91133 -0.63758,47.18086 -0.21252,12.32653 -12.114,11.90147 l -2.55032,-0.10626 q -14.23926,-0.53131 -16.68332,-6.58832 -1.16889,0 -1.91273,-16.25826 0.63758,-12.11401 0.63758,-15.62069 0.10626,-5.2069 -8.3948,-6.26953 l -0.42505,-0.10626 q -13.2829,-0.42505 -15.3019,3.29416 -1.27516,2.019 -1.38142,5.52568 l -0.31879,23.80296 q -0.21252,12.75158 -13.81421,12.22026 -4.67558,-0.21253 -8.50106,0.10626 -9.35116,-0.42505 -9.13863,-11.47642 v -2.97537 q -1.59395,-39.21111 -1.70021,-85.966914 -0.31879,0 -0.63758,-15.301898 0.42505,-9.563686 1.06263,-16.895846 z M 296.58055,193.94325 q -2.12526,0.42505 -8.92611,0.42505 -6.69458,0 -11.68895,-0.31879 l 47.60591,-20.08374 q -0.42505,1.70021 -0.74384,3.18789 l -22.95285,16.78959 z m 23.80295,-10.73259 q -2.12526,9.13864 -3.18789,11.79522 -2.55032,4.56931 -19.76495,4.99437 z m -56.63827,2.76285 q -3.50669,-3.1879 -13.49543,-58.23223 -2.97537,-17.53342 -7.01337,-61.84517 l -1.80647,-10.838844 36.76706,-9.351161 q 2.86911,20.296268 9.66995,60.888805 3.1879,9.98874 4.46305,9.98874 h 0.42506 q 2.23152,0 7.01337,-27.415903 1.80647,0 5.95074,-50.475012 l 41.86769,-10.626318 -1.48769,8.288528 q -4.56931,30.816323 -8.71358,63.545384 -5.84447,30.816321 -8.18226,59.082331 -1.1689,5.73821 -2.23153,10.30753 l -47.6059,20.08374 q -13.07038,-0.74384 -15.62069,-3.40042 z M 239.3047,17.971415 q -1.06264,-2.231527 -1.48769,-7.01337 0.21253,-7.5446864 20.61506,-7.5446864 h 11.68895 q 9.77621,0 9.2449,18.7023204 -0.10627,3.931738 2.019,18.914846 l -36.76707,9.351161 z m 70.34622,-0.212527 q 2.97537,-9.5636862 10.09501,-9.5636862 7.22589,0 25.82195,-0.9563686 6.80084,0.9563686 6.69458,6.6945808 l -2.44405,13.814214 -41.8677,10.626318 q 0.85011,-9.457423 1.70021,-20.615058 z m 81.07879,134.104142 q 15.3019,1.91273 15.3019,15.30189 0,16.68332 -17.85221,22.10275 -2.97537,0.42505 -5.10063,0.42505 -11.2639,0 -16.15201,-12.75158 -0.42505,-0.95637 -0.8501,-3.82548 0,-12.32653 12.75158,-18.27727 6.48205,-2.97536 11.90147,-2.97536 z M 432.70368,20.309205 q 2.55031,-4.781844 5.41942,-8.288529 l 20.50879,31.985219 q -2.8691,1.806474 -4.8881,6.269527 L 428.77194,29.766628 q 1.80647,-4.781843 3.93174,-9.457423 z M 457.99431,125.0847 q 1.91274,9.45743 4.46306,12.11401 4.56932,7.86347 11.79521,7.86347 7.54469,0 10.83885,-13.07037 l 30.285,7.75721 q -5.63195,19.02111 -16.89584,35.17312 -12.85785,14.77058 -26.5658,14.77058 h -3.93174 q -14.23926,0 -28.266,-13.92048 -14.87685,-18.80858 -14.87685,-59.18859 z m 24.22801,3.50669 q 0.95637,-4.25053 1.59395,-9.77621 1.48768,-16.15201 1.48768,-22.527799 -1.38142,-36.235746 -4.35679,-40.6988 Q 475.95279,44.53721 469.577,44.53721 h -2.12526 q -2.33779,0 -4.25053,1.275159 L 442.69242,13.827151 q 7.75721,-9.1386342 18.06474,-9.1386342 10.095,-0.8501055 12.64532,-0.8501055 h 0.42505 q 26.67206,0 35.70443,26.5657957 5.73821,8.182265 8.71358,62.695278 v 1.700211 q 0,22.315264 -5.73821,41.548904 z M 421.9711,99.687802 q 0,-37.617166 11.37016,-68.1147 l 24.97184,20.508794 q -2.76284,5.844476 -4.14426,16.364531 l -2.12526,24.653058 v 5.313159 q 1.27515,14.558056 3.08163,23.271636 l -33.15411,-8.50105 z m 108.91977,71.408858 q 0.53131,-13.49542 4.46305,-18.171 l 32.6228,5.52568 -0.74385,16.78959 -36.66079,2.33779 z m 45.37437,14.66432 q -0.42505,11.47642 -12.75158,10.94511 l -12.75158,-0.53132 q -11.47642,-0.53131 -10.94511,-13.2829 l 0.10627,-2.44405 36.66079,-2.33779 z M 605.06257,57.501319 q 0.21252,-4.99437 -0.21253,-33.154113 l 0.31879,-8.501055 q 0.42505,-10.2012655 14.02674,-9.6699496 l 8.92611,0.4250527 q 1.48768,0.1062632 3.82547,-0.2125264 10.62632,0.4250528 10.20127,10.2012653 -0.74384,7.544686 -0.95637,12.751582 v 0.425053 q 0.21253,19.233636 -0.21253,31.878955 l -36.44827,8.288528 z m 37.61716,55.681911 q -0.10626,11.79521 -0.53131,21.67769 -0.42505,10.83884 -1.91274,35.59816 0.10626,6.37579 -0.10626,13.17664 -0.31879,6.80084 -11.05137,7.65095 -11.79522,-0.53132 -19.44617,-0.95637 -6.9071,-0.31879 -11.68895,-17.00211 -9.66995,-19.97748 -18.80858,-46.7558 -3.61295,-10.20127 -5.52569,-10.83885 h -0.42505 q -2.44405,-0.10626 -3.29416,17.3209 l -0.53131,13.81422 -35.8107,-9.35116 q 0.42506,-5.63195 0.85011,-9.13864 -0.21253,-3.71921 -0.21253,-4.67558 0.95637,-12.85784 1.27516,-20.72132 -0.53131,-16.152003 -0.42505,-19.552425 l 0.53132,-12.326529 q 0.31878,-6.69458 1.06263,-13.601687 -0.31879,-2.975369 -0.63758,-15.301899 2.55031,-34.3230077 5.73821,-34.2167445 2.23153,-1.5939478 4.67558,-1.4876846 l 25.50316,1.0626318 q 8.28853,0.4250528 10.73259,7.7572123 8.50105,38.892325 14.34553,62.695278 4.8881,16.789583 7.75721,18.171004 l 0.8501,0.106264 q 2.97537,0.106263 3.82548,-19.446163 v -1.168895 l 35.81069,2.125264 q -2.44405,33.047853 -2.55032,35.385643 z m -15.62068,-46.330751 26.45953,-3.506685 q -0.31879,3.400422 -0.63758,6.375791 -0.63758,3.719211 -1.06263,6.907107 L 626.3152,72.165638 Z m 23.59044,-6.588317 q -3.50668,-7.757213 -1.38142,-15.089372 l 41.12385,14.983108 -2.65658,3.506685 z m 50.90007,9.244896 q 1.91274,9.244897 4.25053,9.244897 3.82547,2.125264 11.79521,2.125264 h 4.038 l -4.88811,30.178741 q -11.26389,2.23153 -11.26389,6.80085 -1.06264,1.91273 -1.06264,7.01337 v 6.48205 q 0,4.46305 -0.42505,7.01337 0,17.63969 5.31316,18.80858 l -5.2069,32.19775 q -16.89584,0.31879 -22.84658,0.31879 -19.12737,0 -19.12737,-9.56369 v -1.70021 q 0,-3.50668 0.42505,-9.2449 -1.91274,-47.49964 -2.23153,-104.988021 z M 661.16955,45.599842 q -0.53132,-8.076002 -0.53132,-21.252636 v -1.806474 q 0,-10.945108 7.11964,-13.070372 4.67558,-0.8501054 9.35116,-0.8501054 h 28.05348 q 11.05137,0 28.15974,-0.2125264 l -5.10063,31.3476388 q -4.78185,0.212527 -10.62632,0.212527 h -5.10063 q -10.83885,0 -10.83885,10.413792 0.21253,7.544686 -3.71921,8.607317 L 661.16955,48.362685 Z m 78.74102,45.05559 q 0.95637,2.656579 0.95637,9.988738 -0.74385,11.2639 -8.50106,11.2639 -1.91274,0.21252 -3.61295,0.42505 l 1.38142,-29.541164 q 8.3948,0.31879 9.77622,7.863476 z m 7.96974,68.433488 q 9.35116,0 9.35116,16.25827 v 0.53131 q 0,14.34553 -12.11401,14.34553 -2.12526,0 -14.02674,0.42506 -4.56931,0.10626 -8.71358,0.21252 l 1.38142,-30.71006 q 8.50106,-0.74384 24.12175,-1.06263 z m -38.6798,35.59817 4.46305,-27.84096 q 0.42505,0.10627 0.74384,0.10627 0,0.42505 4.56932,1.06263 1.16889,-0.10626 2.55032,-0.21253 l -1.1689,26.5658 q -6.057,0.21252 -11.15763,0.31879 z M 752.98094,3.7321482 q 11.79521,2.33779 11.79521,16.1520038 0,15.195635 -13.60169,15.195635 h -2.8691 q -5.63195,0.637579 -12.22027,-1.700211 l 2.65658,-29.4349015 q 6.69458,-0.1062632 14.23927,-0.2125263 z"
     id="text1"
     style=""
     aria-label="dav.one" />
</svg>
